<svg viewBox="0 0 1700 1700" width="512" height="512">
  <rect x="0" y="0" width="1700" height="1700" rx="200" fill="white" />
  <g transform="scale(1,1.89)" fill="black">
    <g>
      <rect rx="10" x="100" y="100" width="300" height="100" />
      <rect rx="10" x="500" y="100" width="300" height="100" />
      <rect rx="10" x="900" y="100" width="100" height="100" />
      <rect rx="10" x="1100" y="100" width="300" height="100" />
    </g>
    <g transform="translate(200,0)">
      <rect rx="10" x="100" y="300" width="100" height="100" />
      <rect rx="10" x="300" y="300" width="300" height="100" />
      <rect rx="10" x="700" y="300" width="100" height="100" />
    </g>
    <g transform="translate(400,0)">
      <rect rx="10" x="100" y="500" width="100" height="100" />
      <rect rx="10" x="300" y="500" width="100" height="100" />
      <rect rx="10" x="500" y="500" width="100" height="100" />
      <rect rx="10" x="700" y="500" width="300" height="100" />
    </g>
    <g>
      <rect rx="10" x="100" y="700" width="100" height="100" />
      <rect rx="10" x="300" y="700" width="100" height="100" />
      <rect rx="10" x="500" y="700" width="300" height="100" />
      <rect rx="10" x="900" y="700" width="300" height="100" />
      <rect rx="10" x="1300" y="700" width="100" height="100" />
      <rect rx="10" x="1500" y="700" width="100" height="100" />
    </g>
  </g>
</svg>
